<svg width="480" height="360" viewBox="0 0 480 360" fill="none" xmlns="http://www.w3.org/2000/svg">
<path opacity="0.1" d="M386.022 90.7521C366.574 79.5137 334.791 79.5137 315.343 90.7521L14.5857 264.376C-4.8619 275.614 -4.8619 293.964 14.5857 305.202L93.9565 351.034C113.404 362.272 145.187 362.272 164.635 351.034L465.392 177.41C484.84 166.172 484.84 147.822 465.392 136.583L386.022 90.7521Z" fill="black"/>
<path d="M446.032 145.89L444.846 149.973L440.676 151.597L418.638 136.539L436.286 131.491L445.11 137.856L446.032 145.89Z" fill="#343433"/>
<path d="M223.811 290.408L220.08 294.535L212.968 292.471L192.248 265.561L214.768 258.932L224.558 272.453L223.811 290.408Z" fill="#343433"/>
<path d="M211.387 272.673L193.081 262.224C188.603 260.293 182.765 260.951 176.311 264.639C162.264 272.76 150.85 292.515 150.85 308.758C150.85 316.88 153.703 322.587 158.313 325.264L174.863 334.791C175.214 335.01 175.521 335.186 175.872 335.361L176.004 335.449C180.57 337.688 186.628 337.161 193.345 333.298C207.436 325.177 218.806 305.422 218.806 289.179C218.85 281.014 215.997 275.307 211.387 272.673Z" fill="#3B4447"/>
<path d="M218.851 289.179C218.851 305.422 207.437 325.177 193.389 333.298C179.341 341.42 167.927 334.835 167.927 318.592C167.927 302.349 179.341 282.594 193.389 274.472C207.437 266.351 218.851 272.892 218.851 289.179Z" fill="#555E61"/>
<path d="M216.874 290.32C216.874 305.29 206.338 323.509 193.388 331.015C180.437 338.522 169.901 332.42 169.901 317.45C169.901 302.481 180.393 284.262 193.388 276.755C206.338 269.248 216.874 275.307 216.874 290.32Z" fill="#3B4447"/>
<path d="M213.144 293.218C213.144 305.554 204.452 320.567 193.784 326.757C183.073 332.947 174.424 327.942 174.424 315.563C174.424 303.227 183.073 288.213 193.784 282.023C204.496 275.833 213.144 280.838 213.144 293.218Z" fill="#CDCCCB"/>
<path d="M212.31 293.7C212.31 305.51 204.013 319.821 193.828 325.747C183.599 331.63 175.346 326.845 175.346 315.08C175.346 303.271 183.643 288.959 193.828 283.033C204.013 277.15 212.31 281.891 212.31 293.7Z" fill="url(#paint0_linear)"/>
<path d="M193.783 283.033C183.554 288.916 175.301 303.271 175.301 315.08C175.301 317.45 175.652 319.514 176.267 321.27C179.647 323.86 184.696 323.86 190.315 320.611C200.544 314.729 208.797 300.373 208.797 288.564C208.797 286.194 208.446 284.13 207.831 282.375C204.407 279.784 199.402 279.784 193.783 283.033Z" fill="url(#paint1_linear)"/>
<path d="M175.346 313.851C178.156 316.836 182.765 317.143 187.989 314.114C196.55 309.197 203.442 297.169 203.442 287.335C203.442 284.569 202.915 282.287 201.949 280.531C199.491 280.531 196.725 281.365 193.784 283.033C183.951 288.74 175.873 302.305 175.346 313.851Z" fill="#343433"/>
<path d="M200.456 305.817C203.178 305.29 204.626 307.09 204.626 307.09C204.626 307.09 209.763 302.876 210.948 296.071C211.519 292.735 209.587 289.442 208.753 288.608C208.753 288.608 208.446 299.144 199.797 298.573C199.797 298.573 200.851 290.145 201.597 288.037C202.3 286.018 203.573 282.243 206.163 281.409C203.617 280.223 200.456 280.223 196.944 281.54C196.944 283.735 196.593 289.047 193.388 291.33C190.578 293.305 187.505 291.242 185.837 289.75C183.95 291.857 182.237 294.227 180.789 296.73C182.237 296.817 183.73 297.388 183.423 299.495C182.94 302.7 179.603 307.485 175.652 310.602C175.389 312.138 175.301 313.631 175.301 315.08C175.301 318.504 176.004 321.357 177.277 323.508C177.716 320.699 178.462 317.099 179.428 315.168C181.228 311.656 185.925 310.382 185.925 313.763C185.925 317.187 185.179 325.396 185.179 325.396C185.179 325.396 191.676 325.835 195.627 322.367C199.095 319.294 195.583 319.689 194.661 319.338C192.949 318.68 191.017 316.221 192.29 312.709C193.52 309.197 197.734 306.344 200.456 305.817Z" fill="#D0D2D4"/>
<path d="M190.095 318.767C188.515 315.87 188.691 312.402 186.013 310.734C184.915 310.031 182.808 310.865 180.789 313.368C182.896 311.348 185.925 311.085 185.925 313.807C185.925 317.231 185.179 325.44 185.179 325.44C185.179 325.44 190.842 325.835 194.836 323.026C193.344 322.411 191.456 321.226 190.095 318.767Z" fill="url(#paint2_linear)"/>
<path d="M187.945 295.983C187.638 294.535 184.345 294.754 181.755 295.149C181.404 295.676 181.097 296.203 180.79 296.73C182.238 296.818 183.731 297.388 183.424 299.495C182.941 302.7 179.604 307.485 175.653 310.602C175.653 310.69 175.653 310.822 175.609 310.909C184.389 309.285 188.428 298.266 187.945 295.983Z" fill="url(#paint3_linear)"/>
<path d="M200.455 305.817C203.177 305.29 204.626 307.09 204.626 307.09C204.626 307.09 209.762 302.876 210.947 296.071C210.991 295.764 211.035 295.457 211.035 295.105C208.489 299.978 203.309 303.797 200.982 305.071C200.411 305.378 199.885 305.729 199.358 306.08C199.797 305.992 200.148 305.861 200.455 305.817Z" fill="url(#paint4_linear)"/>
<path d="M199.842 298.574C199.842 298.574 199.93 303.885 201.203 305.027C203.574 303.666 208.578 299.891 211.081 295.149C211.212 292.164 209.544 289.399 208.754 288.652C208.754 288.652 208.447 299.188 199.842 298.574Z" fill="url(#paint5_linear)"/>
<path d="M200.589 280.618C199.447 280.75 198.218 281.057 196.989 281.54C196.989 283.735 196.638 289.047 193.433 291.33C190.623 293.306 187.55 291.242 185.882 289.75C185.794 289.837 185.75 289.925 185.663 289.969C187.199 291.506 190.009 293.745 193.213 293.701C197.779 293.613 201.73 285.886 200.589 280.618Z" fill="url(#paint6_linear)"/>
<path d="M198.832 295.852C198.832 297.037 197.998 298.486 196.988 299.056C195.978 299.671 195.144 299.188 195.144 297.959C195.144 296.774 195.978 295.325 196.988 294.754C197.998 294.183 198.832 294.666 198.832 295.852Z" fill="url(#paint7_linear)"/>
<path d="M195.101 297.827C195.321 297.871 195.584 297.827 195.891 297.652C196.681 297.213 197.296 296.115 197.296 295.237C197.296 295.018 197.252 294.842 197.208 294.71C197.12 294.754 197.033 294.754 196.989 294.798C195.979 295.369 195.189 296.686 195.101 297.827Z" fill="#B7B9BB"/>
<path d="M192.906 297.3C192.906 298.486 192.072 299.934 191.063 300.505C190.053 301.12 189.219 300.637 189.219 299.451C189.219 298.266 190.053 296.817 191.063 296.203C192.072 295.632 192.906 296.115 192.906 297.3Z" fill="url(#paint8_linear)"/>
<path d="M189.174 299.232C189.393 299.276 189.657 299.232 189.964 299.056C190.754 298.617 191.369 297.52 191.369 296.642C191.369 296.422 191.325 296.247 191.281 296.115C191.193 296.159 191.105 296.159 191.062 296.203C190.052 296.773 189.262 298.09 189.174 299.232Z" fill="#B7B9BB"/>
<path d="M188.998 304.456C188.998 305.641 188.164 307.09 187.11 307.705C186.101 308.319 185.267 307.836 185.267 306.651C185.267 305.466 186.101 304.017 187.11 303.403C188.164 302.788 188.998 303.227 188.998 304.456Z" fill="url(#paint9_linear)"/>
<path d="M185.311 306.388C185.531 306.431 185.794 306.388 186.101 306.212C186.891 305.773 187.506 304.675 187.506 303.797C187.506 303.578 187.462 303.446 187.418 303.271C187.33 303.315 187.287 303.315 187.199 303.358C186.189 303.929 185.399 305.246 185.311 306.388Z" fill="#B7B9BB"/>
<path d="M192.906 308.319C192.906 309.505 192.072 310.953 191.063 311.568C190.053 312.182 189.219 311.7 189.219 310.47C189.219 309.285 190.053 307.836 191.063 307.222C192.072 306.651 192.906 307.134 192.906 308.319Z" fill="url(#paint10_linear)"/>
<path d="M189.174 310.251C189.393 310.295 189.657 310.251 189.964 310.075C190.754 309.636 191.369 308.539 191.369 307.661C191.369 307.441 191.325 307.266 191.281 307.134C191.193 307.178 191.105 307.178 191.062 307.222C190.052 307.792 189.262 309.109 189.174 310.251Z" fill="#B7B9BB"/>
<path d="M198.568 302.919C198.568 304.105 197.734 305.553 196.724 306.124C195.714 306.739 194.88 306.256 194.88 305.027C194.88 303.841 195.714 302.393 196.724 301.822C197.734 301.251 198.568 301.734 198.568 302.919Z" fill="url(#paint11_linear)"/>
<path d="M194.75 302.041C194.75 303.227 193.916 304.675 192.906 305.29C191.897 305.905 191.062 305.422 191.062 304.236C191.062 303.051 191.897 301.602 192.906 300.988C193.916 300.373 194.75 300.856 194.75 302.041Z" fill="url(#paint12_linear)"/>
<path d="M194.88 304.851C195.1 304.895 195.363 304.851 195.671 304.676C196.461 304.237 197.075 303.139 197.075 302.261C197.075 302.042 197.031 301.91 196.988 301.734C196.9 301.778 196.812 301.778 196.768 301.822C195.758 302.393 194.968 303.71 194.88 304.851Z" fill="#B7B9BB"/>
<path d="M435.759 142.817L417.497 132.369C413.019 130.437 407.137 131.096 400.727 134.783C386.68 142.905 375.266 162.66 375.266 178.903C375.266 187.024 378.119 192.731 382.729 195.409L399.279 204.935C399.586 205.155 399.937 205.33 400.288 205.506L400.42 205.594C404.986 207.833 411.044 207.306 417.761 203.443C431.852 195.321 443.222 175.566 443.222 159.323C443.222 151.202 440.369 145.495 435.759 142.817Z" fill="#3B4447"/>
<path d="M443.222 159.323C443.222 175.566 431.808 195.321 417.76 203.443C403.712 211.564 392.298 204.979 392.298 188.736C392.298 172.493 403.712 152.738 417.76 144.617C431.852 136.496 443.222 143.081 443.222 159.323Z" fill="#555E61"/>
<path d="M441.247 160.465C441.247 175.435 430.755 193.653 417.761 201.16C404.81 208.667 394.274 202.565 394.274 187.595C394.274 172.625 404.81 154.407 417.761 146.9C430.755 139.437 441.247 145.495 441.247 160.465Z" fill="#3B4447"/>
<path d="M437.56 163.362C437.56 175.698 428.912 190.712 418.2 196.902C407.489 203.091 398.84 198.087 398.84 185.707C398.84 173.371 407.533 158.358 418.2 152.168C428.868 146.022 437.56 151.026 437.56 163.362Z" fill="#CDCCCB"/>
<path d="M436.681 163.889C436.681 175.698 428.384 190.009 418.199 195.936C407.97 201.818 399.717 197.077 399.717 185.268C399.717 173.459 408.014 159.148 418.199 153.221C428.384 147.295 436.681 152.08 436.681 163.889Z" fill="url(#paint13_linear)"/>
<path d="M418.156 153.221C407.927 159.104 399.674 173.459 399.674 185.268C399.674 187.639 400.026 189.702 400.64 191.458C404.02 194.048 409.069 194.048 414.644 190.8C424.873 184.917 433.126 170.562 433.126 158.753C433.126 156.382 432.775 154.319 432.16 152.563C428.78 149.973 423.775 149.973 418.156 153.221Z" fill="url(#paint14_linear)"/>
<path d="M399.717 183.995C402.527 186.98 407.136 187.287 412.36 184.258C420.921 179.342 427.813 167.313 427.813 157.479C427.813 154.714 427.286 152.431 426.321 150.675C423.862 150.675 421.096 151.509 418.155 153.177C408.322 158.884 400.288 172.449 399.717 183.995Z" fill="#343433"/>
<path d="M424.873 176.005C427.595 175.478 429.043 177.278 429.043 177.278C429.043 177.278 434.18 173.064 435.365 166.259C435.936 162.923 434.004 159.631 433.17 158.796C433.17 158.796 432.863 169.332 424.214 168.762C424.214 168.762 425.268 160.333 426.014 158.226C426.717 156.206 427.99 152.431 430.58 151.553C428.034 150.368 424.873 150.368 421.361 151.685C421.361 153.924 421.01 159.192 417.761 161.474C414.951 163.45 411.878 161.387 410.21 159.894C408.323 162.001 406.61 164.372 405.162 166.874C406.567 166.962 408.103 167.533 407.796 169.596C407.313 172.8 403.977 177.586 400.026 180.702C399.762 182.239 399.674 183.732 399.674 185.18C399.674 188.604 400.377 191.458 401.65 193.609C402.089 190.799 402.835 187.2 403.801 185.268C405.601 181.756 410.298 180.483 410.298 183.907C410.298 187.331 409.552 195.497 409.552 195.497C409.552 195.497 416.049 195.936 420 192.468C423.468 189.395 420 189.79 419.034 189.439C417.322 188.78 415.39 186.278 416.664 182.81C417.893 179.342 422.151 176.488 424.873 176.005Z" fill="#D0D2D4"/>
<path d="M414.468 188.956C412.888 186.058 413.064 182.634 410.386 180.922C409.288 180.22 407.181 181.054 405.162 183.556C407.269 181.537 410.298 181.273 410.298 183.995C410.298 187.419 409.552 195.585 409.552 195.585C409.552 195.585 415.215 195.98 419.21 193.17C417.761 192.599 415.873 191.414 414.468 188.956Z" fill="url(#paint15_linear)"/>
<path d="M412.362 166.128C412.054 164.679 408.762 164.899 406.172 165.294C405.821 165.821 405.513 166.347 405.206 166.874C406.611 166.962 408.147 167.533 407.84 169.596C407.357 172.801 404.021 177.586 400.07 180.703C400.07 180.79 400.026 180.922 400.026 181.01C408.762 179.473 412.801 168.411 412.362 166.128Z" fill="url(#paint16_linear)"/>
<path d="M424.872 176.005C427.594 175.478 429.043 177.278 429.043 177.278C429.043 177.278 434.179 173.064 435.364 166.26C435.408 165.952 435.452 165.645 435.452 165.294C432.906 170.167 427.726 173.986 425.399 175.259C424.829 175.566 424.302 175.917 423.819 176.269C424.17 176.137 424.521 176.049 424.872 176.005Z" fill="url(#paint17_linear)"/>
<path d="M424.213 168.762C424.213 168.762 424.301 174.074 425.574 175.215C427.945 173.898 432.949 170.079 435.452 165.338C435.583 162.352 433.915 159.587 433.169 158.84C433.169 158.797 432.818 169.376 424.213 168.762Z" fill="url(#paint18_linear)"/>
<path d="M424.961 150.763C423.82 150.895 422.59 151.202 421.361 151.685C421.361 153.924 421.01 159.192 417.761 161.474C414.952 163.45 411.879 161.387 410.211 159.894C410.123 159.982 410.079 160.07 409.991 160.157C411.528 161.694 414.337 163.933 417.542 163.889C422.195 163.801 426.102 156.031 424.961 150.763Z" fill="url(#paint19_linear)"/>
<path d="M423.205 166.04C423.205 167.225 422.371 168.674 421.361 169.289C420.351 169.903 419.517 169.42 419.517 168.235C419.517 167.05 420.351 165.601 421.361 164.986C422.371 164.372 423.205 164.855 423.205 166.04Z" fill="url(#paint20_linear)"/>
<path d="M419.472 167.972C419.692 168.016 419.955 167.972 420.262 167.796C421.053 167.357 421.667 166.26 421.667 165.382C421.667 165.162 421.623 164.986 421.579 164.855C421.491 164.899 421.448 164.899 421.36 164.943C420.35 165.513 419.56 166.83 419.472 167.972Z" fill="#B7B9BB"/>
<path d="M417.277 167.489C417.277 168.674 416.443 170.123 415.434 170.737C414.424 171.352 413.59 170.869 413.59 169.64C413.59 168.454 414.424 167.006 415.434 166.435C416.443 165.82 417.277 166.303 417.277 167.489Z" fill="url(#paint21_linear)"/>
<path d="M413.547 169.42C413.766 169.464 414.03 169.42 414.337 169.245C415.127 168.806 415.742 167.708 415.742 166.83C415.742 166.611 415.698 166.435 415.654 166.303C415.566 166.347 415.478 166.391 415.435 166.435C414.425 166.962 413.635 168.279 413.547 169.42Z" fill="#B7B9BB"/>
<path d="M413.371 174.6C413.371 175.786 412.537 177.234 411.483 177.805C410.474 178.42 409.64 177.937 409.64 176.751C409.64 175.566 410.474 174.117 411.483 173.547C412.537 172.932 413.371 173.415 413.371 174.6Z" fill="url(#paint22_linear)"/>
<path d="M409.683 176.576C409.902 176.62 410.166 176.576 410.473 176.4C411.263 175.961 411.878 174.864 411.878 173.942C411.878 173.722 411.834 173.591 411.79 173.415C411.702 173.459 411.614 173.459 411.57 173.547C410.561 174.118 409.77 175.434 409.683 176.576Z" fill="#B7B9BB"/>
<path d="M417.277 178.507C417.277 179.693 416.443 181.141 415.434 181.712C414.424 182.327 413.59 181.844 413.59 180.659C413.59 179.473 414.424 178.025 415.434 177.454C416.443 176.839 417.277 177.322 417.277 178.507Z" fill="url(#paint23_linear)"/>
<path d="M413.547 180.439C413.766 180.483 414.03 180.439 414.337 180.263C415.127 179.824 415.742 178.727 415.742 177.849C415.742 177.629 415.698 177.498 415.654 177.322C415.566 177.366 415.478 177.366 415.435 177.454C414.425 177.981 413.635 179.298 413.547 180.439Z" fill="#B7B9BB"/>
<path d="M422.985 173.108C422.985 174.293 422.151 175.742 421.097 176.356C420.087 176.971 419.253 176.488 419.253 175.303C419.253 174.118 420.087 172.669 421.097 172.054C422.151 171.44 422.985 171.879 422.985 173.108Z" fill="url(#paint24_linear)"/>
<path d="M419.121 172.186C419.121 173.371 418.287 174.82 417.277 175.435C416.268 176.049 415.434 175.566 415.434 174.381C415.434 173.196 416.268 171.747 417.277 171.132C418.287 170.562 419.121 171.001 419.121 172.186Z" fill="url(#paint25_linear)"/>
<path d="M419.253 175.039C419.473 175.083 419.736 175.039 420.044 174.864C420.834 174.425 421.448 173.327 421.448 172.449C421.448 172.23 421.405 172.054 421.361 171.923C421.273 171.967 421.185 171.967 421.141 172.01C420.131 172.581 419.341 173.898 419.253 175.039Z" fill="#B7B9BB"/>
<path d="M451.432 102.254C451.432 102.254 452.134 78.3722 451.432 74.509C450.729 70.602 446.164 53.8322 433.345 43.0329C420.57 32.2775 394.669 14.4103 372.719 5.8059C361.788 1.50372 348.092 0.53793 343.131 0.0111323C342.209 -0.0766672 340.497 0.36233 339.399 1.06473L333.473 4.79621L326.186 8.79109C326.186 8.79109 303.402 8.30819 294.446 10.6788C285.447 13.0933 256.209 26.6583 244.093 32.7604C232.021 38.8624 208.051 53.6127 195.847 61.0318C183.643 68.407 167.488 80.3038 156.776 88.5131C146.109 96.7223 126.09 115.775 107.214 133.642C107.214 133.642 100.409 139.744 97.3361 142.773C94.2631 145.758 54.885 177.015 48.3001 182.107C41.7151 187.2 30.1256 196.902 28.9403 198.965C27.755 201.072 19.853 217.93 19.853 217.93C19.853 217.93 14.2778 224.734 12.7852 236.587C11.2926 248.484 16.1654 255.464 16.1654 255.464C16.1654 255.464 16.1654 263.059 25.0771 272.321C25.0771 272.321 25.7795 277.721 35.8764 285.228C45.9734 292.735 83.7272 314.992 89.6975 318.197C95.6679 321.401 108.487 329.479 130.261 330.181C152.035 330.884 161.21 326.274 161.21 326.274L161.825 325.967C163.844 297.3 179.385 276.58 198.876 266.219C213.144 258.625 224.294 264.683 222.802 280.882C222.407 285.272 221.485 289.925 220.08 294.535L221.924 293.525L376.758 198.043L384.836 192.512C387.557 172.054 398.927 152.036 421.097 138.647C433.74 131.008 445.022 134.871 444.847 149.973C447.964 145.978 452.617 139.129 454.417 131.754C457.226 120.165 455.295 105.283 451.432 102.254Z" fill="#COR"/>
<path opacity="0.15" d="M228.64 229.695C228.64 229.695 158.006 272.76 154.055 274.648C150.104 276.58 122.93 281.145 93.9558 268.897C72.0059 259.634 52.5145 248.791 42.0663 236.367C40.8371 236.455 40.1347 237.641 40.2225 240.099C40.3542 244.006 41.1883 250.547 43.1638 252.523C45.1393 254.498 54.7094 260.732 59.8896 263.937C65.0698 267.141 76.0886 273.551 81.9712 276.228C87.5904 278.775 89.961 277.677 91.6291 276.228C91.7169 276.141 91.8486 276.053 91.9364 275.965C91.5413 276.404 91.1462 276.799 90.7951 277.107C89.083 278.555 86.7124 279.653 81.1371 277.107C75.2545 274.429 64.2357 268.019 59.0555 264.815C53.8753 261.61 44.3052 255.332 42.3297 253.401C40.3981 251.381 39.5201 244.84 39.3884 240.933C39.3006 238.123 40.3542 236.455 42.0663 236.367C38.7299 232.373 36.2715 228.246 34.9984 223.944C32.4084 215.208 28.633 209.589 25.4722 206.121C22.8821 211.52 19.8969 217.93 19.8969 217.93C19.8969 217.93 14.2778 224.734 12.7852 236.587C11.2926 248.484 16.1654 255.464 16.1654 255.464C16.1654 255.464 16.1654 255.508 16.1654 255.596C19.5896 259.634 26.0429 265.517 28.9842 268.327C34.9984 274.077 72.9278 295.413 81.0054 299.978C87.7221 303.754 102.955 311.787 121.876 313.719C125.256 314.07 126.749 317.494 126.837 320.04C126.925 322.587 126.837 324.738 123.808 324.43C103.745 322.323 88.1611 314.597 81.0054 310.558C72.8839 305.993 31.7499 284.262 25.0332 272.365C25.0332 272.365 25.7356 277.765 35.8325 285.272C45.9295 292.779 83.6833 315.036 89.6537 318.241C95.624 321.445 108.443 329.523 130.217 330.225C141.324 330.576 149.138 329.567 154.142 328.469C154.055 327.547 154.055 326.538 154.142 325.484C156.162 296.817 171.527 272.146 195.233 259.503C200.413 256.737 205.417 255.376 210.202 255.376C215.997 255.376 221.221 257.571 224.865 261.566C227.279 264.2 229.474 269.995 229.079 277.502L377.943 187.112C382.246 164.46 396.074 144.88 417.102 132.193C420.087 130.393 423.116 129.076 426.101 128.242L450.071 112.175L451.388 102.342C451.388 102.342 451.695 92.069 451.695 83.9036L228.64 229.695Z" fill="black"/>
<path opacity="0.08" d="M431.194 62.8318L424.916 60.3295L382.992 63.0513C369.91 62.3489 332.2 84.5182 303.401 102.034C274.603 119.594 259.326 136.232 259.326 136.232L219.597 201.775C219.597 201.775 214.943 211.608 209.28 218.544C203.661 225.48 170.692 255.332 170.692 255.332L235.84 212.793L341.243 143.739C341.243 143.739 414.336 94.5274 417.672 92.2446C421.009 89.9618 427.199 86.0547 430.886 76.9675C434.574 67.8802 431.194 62.8318 431.194 62.8318Z" fill="black"/>
<path opacity="0.15" d="M455.558 115.116C450.51 122.448 442.125 125.389 442.125 125.389C448.008 121.262 449.983 113.141 449.983 113.141V113.009L428.033 127.716C429.701 127.364 431.37 127.189 432.95 127.189C438.657 127.189 443.749 129.428 447.261 133.466C448.798 135.266 449.939 137.944 450.378 141.764C452.09 138.734 453.583 135.31 454.461 131.754C455.69 126.399 455.997 120.34 455.558 115.116Z" fill="black"/>
<path opacity="0.15" d="M228.859 280.048C228.728 281.233 228.508 282.462 228.201 283.735C227.674 285.974 227.147 288.301 226.577 290.627L376.626 198.087C376.758 195.584 376.977 193.126 377.328 190.712L228.859 280.048Z" fill="black"/>
<path opacity="0.1" d="M26.8774 260.556C27.7115 261.303 28.5017 262.049 29.248 262.751C31.9259 265.341 43.0764 272.848 80.8741 294.183L81.2253 294.359C99.4437 304.632 117.267 309.329 134.212 308.319C144.66 307.705 152.738 305.685 158.489 303.622C159.235 301.427 160.025 299.32 160.947 297.213C155.109 299.583 146.285 302.085 134.256 302.788C109.76 304.28 89.1273 293.349 81.0497 288.784C72.9282 284.218 34.9988 262.883 29.0285 257.132C24.0678 252.391 15.3317 244.138 13.3124 233.426C13.0929 234.436 12.9173 235.49 12.7856 236.587C12.5222 238.65 12.4783 240.538 12.5222 242.294C16.078 250.503 21.9606 255.991 26.8774 260.556Z" fill="black"/>
<g opacity="0.3">
<path opacity="0.3" d="M97.7754 270.39C99.5314 271.048 101.243 271.619 102.956 272.19C110.155 267.273 143.036 244.928 163.493 233.075C143.958 243.391 107.038 263.234 97.7754 270.39Z" fill="url(#paint26_linear)"/>
</g>
<path opacity="0.15" d="M39.9156 233.646C46.2372 212.047 78.0645 175.479 78.0645 175.479C52.8661 200.94 42.0667 222.1 38.5986 231.714C39.0376 232.373 39.4766 232.987 39.9156 233.646Z" fill="black"/>
<path opacity="0.3" d="M447.218 133.466C443.706 129.428 438.613 127.189 432.906 127.189C427.902 127.189 422.458 128.901 417.103 132.106C396.075 144.793 382.246 164.372 377.944 187.024L382.905 187.419L377.329 190.756C376.978 193.17 376.759 195.629 376.627 198.131L376.759 198.043L384.836 192.512C387.558 172.054 398.928 152.036 421.097 138.647C433.741 131.008 445.023 134.871 444.847 149.973C446.471 147.909 448.491 145.056 450.335 141.763C449.94 137.944 448.798 135.222 447.218 133.466Z" fill="url(#paint27_linear)"/>
<path opacity="0.3" d="M224.118 282.901L229.078 277.458C229.474 269.951 227.235 264.156 224.864 261.522C221.22 257.527 215.996 255.332 210.202 255.332C205.46 255.332 200.412 256.737 195.232 259.459C171.482 272.102 156.117 296.73 154.142 325.44C154.054 326.494 154.054 327.503 154.142 328.425C158.971 327.372 161.165 326.274 161.165 326.274L161.78 325.967C163.799 297.3 179.34 276.58 198.831 266.219C213.099 258.625 224.249 264.683 222.757 280.882C222.362 285.272 221.44 289.925 220.035 294.535L221.879 293.525L226.532 290.628C227.103 288.301 227.63 285.974 228.157 283.735C228.464 282.462 228.683 281.233 228.815 280.048L224.118 282.901Z" fill="url(#paint28_linear)"/>
<path opacity="0.1" d="M21.4331 268.019C22.4428 269.424 23.6281 270.873 25.0768 272.365C24.0232 270.522 22.7501 269.205 21.4331 268.019Z" fill="black"/>
<path opacity="0.1" d="M154.142 325.44C154.669 318.109 156.03 311.085 158.225 304.412C152.43 306.432 144.484 308.363 134.256 308.978C132.719 309.066 131.183 309.109 129.646 309.109C113.974 309.109 97.5994 304.368 80.8736 294.93L80.5224 294.754C42.6808 273.419 31.4863 265.824 28.7645 263.234C28.0182 262.532 27.228 261.786 26.4378 261.039C21.7845 256.737 16.297 251.601 12.6533 244.182C13.3557 251.381 16.1653 255.508 16.1653 255.508C16.1653 255.508 16.1653 255.552 16.1653 255.64C19.5895 259.678 26.0427 265.561 28.984 268.37C34.9983 274.121 72.9277 295.457 81.0053 300.022C87.7219 303.798 102.955 311.831 121.876 313.763C125.256 314.114 126.749 317.538 126.837 320.084C126.924 322.631 126.837 324.782 123.808 324.474C103.745 322.367 88.1609 314.641 81.0053 310.602C72.8838 306.036 31.7497 284.306 25.0331 272.409C25.0331 272.409 25.7354 277.809 35.8324 285.316C45.9293 292.823 83.6831 315.08 89.6535 318.285C95.6239 321.489 108.443 329.567 130.217 330.269C141.324 330.62 149.138 329.611 154.142 328.513C154.054 327.503 154.054 326.494 154.142 325.44Z" fill="black"/>
<path opacity="0.3" d="M121.921 313.763C113.975 312.929 106.644 311.041 100.366 308.846L100.586 310.47L105.283 313.543L100.805 312.27C90.752 309.153 83.0257 305.202 78.5479 302.656C70.4264 298.091 29.2923 276.36 22.5757 264.463V266.088C29.2923 277.985 70.4703 299.715 78.5479 304.28C83.0257 306.827 90.8398 310.822 101.025 313.938L101.376 316.529C101.376 316.529 117.092 321.445 123.062 321.138C124.511 321.05 125.784 320.392 126.75 319.47C126.53 317.011 125.038 314.07 121.921 313.763Z" fill="black"/>
<path opacity="0.2" d="M94.0004 268.897C72.0505 259.634 52.559 248.791 42.1109 236.368C40.8817 236.455 40.1793 237.641 40.2671 240.099C40.3988 244.006 41.2329 250.547 43.2084 252.523C45.1839 254.498 54.754 260.732 59.9342 263.937C65.1144 267.141 76.1332 273.551 82.0158 276.229C87.6349 278.775 90.0055 277.677 91.6737 276.229C91.7615 276.141 91.8932 276.053 91.981 275.965C91.5859 276.404 91.1908 276.799 90.8396 277.107C89.1275 278.555 86.757 279.653 81.1817 277.107C75.2991 274.429 64.2803 268.019 59.1001 264.815C53.9199 261.61 44.3498 255.332 42.3743 253.401C40.3988 251.381 39.5208 244.84 39.3891 240.933C39.3013 238.124 40.3549 236.455 42.067 236.368C38.7306 232.373 36.2722 228.246 34.9991 223.944C34.2528 221.486 33.4187 219.291 32.5407 217.271L28.9849 219.071L32.1895 235.753L33.287 245.235C33.287 245.235 31.531 250.635 38.2038 255.288C44.8766 259.942 65.5534 273.419 74.7284 278.204C83.9035 282.989 94.9662 287.291 106.38 285.14C112.438 283.999 116.609 279.697 119.243 275.877C111.429 274.78 102.78 272.585 94.0004 268.897Z" fill="url(#paint29_linear)"/>
<path opacity="0.2" d="M138.997 291.593C137.46 291.593 135.748 291.549 133.86 291.506C124.378 291.154 112.964 289.179 99.9259 285.579L99.4869 285.447C98.1699 285.096 97.4236 284.482 97.248 283.647C97.0285 282.418 98.3016 281.409 98.4333 281.321L98.9601 280.926C102.253 278.379 109.935 272.409 117.486 269.907C120.866 268.765 126.88 268.151 133.992 268.151C141.631 268.151 148.655 268.853 151.508 269.907C154.669 271.092 158.137 274.472 156.644 284.086C155.723 290.276 148.918 291.593 138.997 291.593Z" fill="black"/>
<path d="M451.739 83.1135L450.554 85.8791L449.983 113.097L451.432 102.254C451.432 102.254 451.739 91.3666 451.739 83.1135Z" fill="#B01120"/>
<path d="M98.9172 281.935C98.9172 281.935 96.4149 283.823 99.7074 284.701C103 285.579 119.111 290.189 133.905 290.715C148.656 291.242 155.065 289.793 155.943 283.955C156.733 278.818 156.558 272.541 151.29 270.609C146.022 268.678 125.652 267.975 117.75 270.609C109.892 273.243 101.639 279.784 98.9172 281.935Z" fill="url(#paint30_linear)"/>
<path d="M151.245 270.609C147.074 269.073 133.29 268.326 123.895 269.38L112.701 274.868C111.823 275.307 111.252 276.36 111.252 277.897C111.252 281.014 113.447 284.964 116.169 286.72C117.53 287.598 118.759 287.774 119.637 287.379L152.562 271.224C152.167 271.004 151.728 270.785 151.245 270.609Z" fill="url(#paint31_linear)"/>
<path d="M111.252 277.897C111.252 281.013 113.447 284.964 116.169 286.72C117.53 287.598 118.759 287.774 119.637 287.379C120.515 286.94 121.085 285.886 121.085 284.35C121.085 281.233 118.89 277.282 116.169 275.526C114.808 274.648 113.579 274.472 112.701 274.867C111.823 275.306 111.252 276.36 111.252 277.897Z" fill="white"/>
<path d="M151.246 270.609C148.963 269.775 143.87 269.16 138.163 268.941L125.828 275.438C124.95 275.877 124.379 276.931 124.379 278.467C124.379 281.584 126.574 285.535 129.296 287.291C130.657 288.169 131.886 288.345 132.764 287.95L156.031 277.106C155.592 274.209 154.275 271.707 151.246 270.609Z" fill="url(#paint32_linear)"/>
<path d="M124.422 278.511C124.422 281.628 126.617 285.579 129.339 287.335C130.7 288.213 131.929 288.389 132.807 287.994C133.685 287.555 134.255 286.501 134.255 284.964C134.255 281.848 132.06 277.897 129.339 276.141C127.978 275.263 126.792 275.087 125.871 275.526C124.993 275.877 124.422 276.931 124.422 278.511Z" fill="white"/>
<path d="M142.685 280.531C142.685 282.418 144.002 284.789 145.626 285.842C146.416 286.369 147.162 286.501 147.689 286.238L156.074 282.199C156.381 278.95 156.162 275.526 154.494 273.112L143.519 278.687C143.036 278.994 142.685 279.609 142.685 280.531Z" fill="url(#paint33_linear)"/>
<path d="M142.685 280.531C142.685 282.418 144.002 284.789 145.626 285.842C146.416 286.369 147.162 286.501 147.689 286.238C148.216 285.974 148.567 285.36 148.567 284.394C148.567 282.506 147.25 280.135 145.626 279.082C144.836 278.555 144.089 278.423 143.563 278.687C143.036 278.994 142.685 279.609 142.685 280.531Z" fill="#F09041"/>
<path d="M98.9172 281.935C98.9172 281.935 96.4149 283.823 99.7074 284.701C103 285.579 119.111 290.189 133.905 290.715C148.656 291.242 155.065 289.793 155.943 283.955C156.733 278.818 156.558 272.541 151.29 270.609C146.022 268.678 125.652 267.975 117.75 270.609C109.892 273.243 101.639 279.784 98.9172 281.935Z" fill="url(#paint34_linear)"/>
<path d="M29.1161 198.701C29.0283 198.789 28.9844 198.877 28.9405 198.965C27.7552 201.072 19.8532 217.929 19.8532 217.929C19.8532 217.929 19.7654 218.061 19.5898 218.281C19.5898 218.281 20.3361 225.085 23.8042 232.065C27.2723 239.045 33.3305 245.279 33.3305 245.279C33.3305 245.279 35.2621 228.685 34.9987 218.939C34.6914 210.379 31.9257 199.096 29.1161 198.701Z" fill="url(#paint35_linear)"/>
<path d="M34.955 218.939C34.8233 215.208 34.2526 210.95 33.3746 207.306L25.5166 211.169C24.6386 211.608 24.0679 212.662 24.0679 214.198C24.0679 217.315 26.2629 221.266 28.9846 223.022C30.3455 223.9 31.5747 224.076 32.4527 223.68L34.9989 222.451C34.9989 221.222 34.9989 220.037 34.955 218.939Z" fill="url(#paint36_linear)"/>
<path d="M24.1108 214.242C24.1108 217.359 26.3058 221.31 29.0276 223.066C30.3885 223.944 31.6177 224.119 32.4957 223.724C33.3737 223.285 33.9444 222.232 33.9444 220.695C33.9444 217.578 31.7494 213.627 29.0276 211.871C27.6667 210.993 26.4375 210.818 25.5595 211.257C24.6376 211.608 24.1108 212.662 24.1108 214.242Z" fill="white"/>
<path d="M34.9557 218.939C34.9557 218.764 34.9557 218.588 34.9557 218.413L27.5805 222.012C26.7025 222.451 26.1318 223.505 26.1318 225.041C26.1318 228.158 28.3268 232.109 31.0486 233.865C32.3217 234.699 33.507 234.919 34.3411 234.568C34.7362 229.475 35.0874 223.461 34.9557 218.939Z" fill="url(#paint37_linear)"/>
<path d="M31.0486 222.671C29.6877 221.793 28.4585 221.617 27.5805 222.012C26.7025 222.451 26.1318 223.505 26.1318 225.041C26.1318 228.158 28.3268 232.109 31.0486 233.865C32.3217 234.699 33.507 234.919 34.3411 234.568C34.5167 232.197 34.6923 229.651 34.824 227.149C33.946 225.349 32.5851 223.637 31.0486 222.671Z" fill="white"/>
<mask id="mask0" mask-type="alpha" maskUnits="userSpaceOnUse" x="19" y="198" width="17" height="48">
<path d="M29.1161 198.701C29.0283 198.789 28.9844 198.877 28.9405 198.965C27.7552 201.072 19.8532 217.929 19.8532 217.929C19.8532 217.929 19.7654 218.061 19.5898 218.281C19.5898 218.281 20.3361 225.085 23.8042 232.065C27.2723 239.045 33.3305 245.279 33.3305 245.279C33.3305 245.279 35.2621 228.685 34.9987 218.939C34.6914 210.379 31.9257 199.096 29.1161 198.701Z" fill="url(#paint38_linear)"/>
</mask>
<g mask="url(#mask0)">
<path d="M29.1161 198.701C29.0283 198.789 28.9844 198.877 28.9405 198.965C27.7552 201.072 19.8532 217.929 19.8532 217.929C19.8532 217.929 19.7654 218.061 19.5898 218.281C19.5898 218.281 20.3361 225.085 23.8042 232.065C27.2723 239.045 33.3305 245.279 33.3305 245.279C33.3305 245.279 35.2621 228.685 34.9987 218.939C34.6914 210.379 31.9257 199.096 29.1161 198.701Z" fill="url(#paint39_linear)"/>
</g>
<path d="M415.566 89.5226C412.318 88.1178 395.329 79.6452 384.046 79.5574C372.764 79.4696 357.531 84.562 340.981 92.5517C339.971 93.0346 338.917 93.6492 337.732 94.2199C335.713 95.1418 334.396 96.9417 334.791 100.673L340.629 143.3L330.445 150.06L323.596 105.809C323.333 103.483 321.709 103.395 320.216 104.361C307.178 112.658 292.823 121.921 286.633 126.442C271.18 137.725 263.981 150.763 255.683 164.855C247.957 177.981 235.402 205.286 234.699 209.808C234.699 209.808 233.47 214.725 237.421 211.915C240.758 209.545 309.768 164.986 330.708 151.465L340.893 144.749L417.717 92.2444C417.674 92.2444 419.605 91.2786 415.566 89.5226Z" fill="#141C1E"/>
<path d="M241.678 166.347C236.893 175.347 220.826 202.872 217.577 206.779C214.328 210.686 203.792 214.988 191.369 213.013C178.945 210.993 156.161 199.448 132.28 184.741C108.442 170.035 99.7501 162.396 98.2575 153.836C96.7649 145.276 105.896 138.515 111.076 133.51C116.256 128.506 152.254 93.5616 167.312 83.4647C167.312 83.4647 168.673 81.8843 172.141 84.6061C175.609 87.284 195.759 102.034 207.919 109.234C220.079 116.433 259.326 136.232 259.326 136.232L241.678 166.347Z" fill="#141C1E"/>
<path d="M147.734 179.166C130.832 167.445 122.228 162.879 112.57 154.275C102.912 145.67 107.346 138.866 109.585 136.627C110.375 135.837 111.209 135.135 111.956 134.432L112.746 133.642C139.129 108.18 155.767 92.9469 164.986 86.7131L165.118 86.6253L165.162 86.5814C165.206 86.5375 165.338 86.4936 165.557 86.4936C165.952 86.4936 168.367 86.8009 169.859 87.9423C173.064 90.4446 192.951 105.019 205.243 112.307C216.086 118.716 249.318 135.793 256.035 139.217L240.494 165.733C236.894 172.493 226.402 190.492 220.432 200.15C218.017 204.013 207.657 206.735 200.589 204.716C193.565 202.696 163.669 190.185 147.734 179.166Z" fill="#303E42"/>
<path d="M386.241 63.2707C386.241 63.2707 378.471 63.4024 374.476 59.671C369.735 55.281 351.341 40.838 335.581 31.5312C319.821 22.1806 305.422 17.5711 302.612 16.4736C299.803 15.3322 292.867 12.5665 300.286 11.03C307.705 9.53742 326.318 9.23012 326.318 9.23012C326.318 9.23012 339.181 6.90344 353.887 11.2934C368.594 15.6834 384.837 23.4537 397.831 31.8385C410.825 40.2234 424.829 53.086 427.507 56.6419C430.185 60.1978 434.224 64.895 427.551 64.7194C420.878 64.456 386.241 63.2707 386.241 63.2707Z" fill="#141C1E"/>
<path d="M427.594 63.4024C421.009 63.1829 386.636 61.9976 386.285 61.9537H386.153C385.407 61.9537 378.778 61.8659 375.354 58.7051C370.129 53.8762 351.604 39.477 336.239 30.3898C322.674 22.3561 310.294 17.8345 304.982 15.9468C304.148 15.6395 303.49 15.42 303.095 15.2444C300.022 14.0152 298.88 13.3128 298.441 12.8738C297.914 12.4348 299.1 11.9519 300.285 11.6885C307.528 10.2398 325.747 9.8447 325.922 9.8447H326.01H326.098C326.142 9.8447 329.917 9.4935 335.054 9.4935C341.463 9.4935 347.653 10.7227 353.491 12.4787C367.495 16.6492 383.826 24.2877 397.128 32.8921C410.298 41.4086 423.951 54.0957 426.453 57.3881L426.98 58.0905C427.858 59.2319 430.184 62.3049 429.833 63.0512C429.789 63.139 429.35 63.4463 427.902 63.4463C427.858 63.4024 427.726 63.4024 427.594 63.4024Z" fill="#39464A"/>
<path d="M411.044 95.2297L341.814 142.51L336.019 100.498C335.668 96.9857 336.985 95.9321 338.214 95.3614C338.96 95.0102 339.575 94.7029 340.233 94.3517C340.672 94.1322 341.111 93.9127 341.507 93.6932C359.242 85.1767 373.422 80.8306 383.694 80.8306H384.002C392.035 80.9184 403.098 85.484 409.815 88.3375C411.746 89.1715 415.566 92.1128 411.044 95.2297Z" fill="#303E42"/>
<path d="M250.591 201.775C272.322 187.639 313.192 161.255 329.303 150.851L322.367 105.985C322.279 105.371 322.148 105.107 321.928 105.107C321.797 105.107 321.445 105.151 320.919 105.502C309.197 112.965 293.876 122.799 287.379 127.54C272.936 138.076 265.693 150.368 258.054 163.406L256.781 165.557C253.84 170.562 250.108 177.805 246.64 184.961L250.591 201.775Z" fill="#303E42"/>
<path d="M181.36 175.874C170.429 168.937 159.41 161.738 137.768 150.631C122.534 142.817 112.086 140.842 107.257 140.315C105.984 143.651 106.16 148.568 112.613 154.275C122.271 162.879 130.831 167.445 147.777 179.166C163.712 190.185 193.608 202.652 200.676 204.716C206.471 206.384 214.504 204.847 218.499 202.126C209.939 192.336 190.842 181.888 181.36 175.874Z" fill="#39464A"/>
<path opacity="0.7" d="M116.828 133.422L178.507 94.3078C174.249 91.2348 171 88.8642 169.903 87.9862C168.41 86.8448 165.996 86.5375 165.601 86.5375C165.381 86.5375 165.249 86.5814 165.205 86.6253L165.162 86.6692L165.03 86.757C156.25 92.6835 140.797 106.731 116.608 129.954L116.828 133.422Z" fill="#C5D0D3"/>
<path opacity="0.7" d="M324.386 9.9324C319.776 10.0641 306.299 10.5031 300.285 11.7323C299.1 11.9957 297.914 12.4347 298.441 12.9176C298.88 13.3127 300.065 14.059 303.095 15.2882C303.49 15.4638 304.148 15.6833 304.982 15.9906C305.86 16.2979 306.914 16.693 308.143 17.1759C312.27 15.1565 319.601 11.7762 324.386 9.9324Z" fill="#C5D0D3"/>
<path d="M219.377 183.249C217.357 177.059 209.894 169.245 202.739 165.777C200.719 164.811 198.963 164.284 197.471 164.152C193.695 163.845 191.939 166.216 193.388 170.649C195.408 176.839 202.87 184.654 210.026 188.122C212.046 189.087 213.801 189.614 215.294 189.746C219.069 190.053 220.825 187.683 219.377 183.249ZM216.699 186.497C216.567 186.673 216.084 186.805 215.294 186.717C214.504 186.673 213.187 186.366 211.168 185.4C204.846 182.327 197.998 175.259 196.285 169.903C195.759 168.367 195.934 167.577 196.066 167.357C196.198 167.181 196.681 167.05 197.471 167.138C198.261 167.181 199.578 167.489 201.597 168.455C207.919 171.527 214.767 178.639 216.479 183.951C217.006 185.488 216.874 186.278 216.699 186.497Z" fill="#3D4B4F"/>
<path d="M174.643 172.845L175.521 171.879C175.521 171.879 189.042 166.128 201.773 173.152C214.46 180.176 215.163 196.682 215.163 196.682L214.329 197.428C214.329 197.428 204.715 199.404 184.652 190.624C164.59 181.888 174.643 172.845 174.643 172.845Z" fill="#3D4B4F"/>
<path opacity="0.2" d="M205.285 112.307C192.994 105.019 173.107 90.4446 169.902 87.9423C168.41 86.8009 165.995 86.4936 165.6 86.4936C165.381 86.4936 165.249 86.5375 165.205 86.5814L165.161 86.6253L165.029 86.7131C155.767 92.9469 139.172 108.136 112.789 133.642L111.998 134.432C111.296 135.135 110.462 135.837 109.628 136.627C107.389 138.866 102.955 145.67 112.613 154.275C113.491 155.065 114.369 155.811 115.247 156.514C138.075 143.037 172.844 124.642 208.271 113.975C207.129 113.36 206.163 112.79 205.285 112.307Z" fill="white"/>
<path opacity="0.2" d="M376.494 21.4342C368.724 17.7467 360.822 14.6298 353.534 12.4787C347.696 10.7227 341.506 9.4935 335.097 9.4935C329.96 9.4935 326.185 9.8447 326.141 9.8447H326.053H325.965C325.79 9.8447 307.528 10.2398 300.328 11.6885C299.143 11.9519 297.957 12.3909 298.484 12.8738C298.923 13.2689 300.108 14.0152 303.138 15.2444C303.533 15.42 304.191 15.6395 305.025 15.9468C306.913 16.6492 309.722 17.6589 313.147 19.0198C327.897 17.5272 351.866 16.4736 376.494 21.4342Z" fill="white"/>
<path d="M91.6286 264.946C88.819 263.454 75.9125 257 69.6348 253.181C63.3572 249.406 47.7727 239.001 44.8315 237.245C44.0413 236.763 43.3389 236.455 42.7243 236.367C42.4609 237.026 42.3292 237.86 42.3731 239.001C42.5048 242.909 43.3389 249.45 45.3143 251.425C47.2898 253.401 56.86 259.634 62.0402 262.839C67.2203 266.044 78.2392 272.453 84.1217 275.131C87.5898 276.711 89.8287 276.887 91.4091 276.448C91.4969 276.36 91.5847 276.316 91.6725 276.228C93.4285 274.736 95.9747 271.399 96.282 269.6C96.6332 266.966 91.6286 264.946 91.6286 264.946Z" fill="#1B2628"/>
<path d="M84.078 275.087C78.1954 272.409 67.1766 266 61.9964 262.795C56.8162 259.591 47.2461 253.313 45.2706 251.381C43.2951 249.406 42.461 242.909 42.3293 238.958C42.3293 237.86 42.461 237.026 42.7244 236.411C41.1001 236.104 40.1782 237.246 40.266 240.099C40.3977 244.006 41.2318 250.547 43.2073 252.523C45.1828 254.498 54.7529 260.732 59.9331 263.937C65.1133 267.141 76.1321 273.551 82.0147 276.229C87.3265 278.643 89.741 277.765 91.4092 276.448C89.7849 276.843 87.546 276.668 84.078 275.087Z" fill="#5A6567"/>
<path d="M245.235 198.219C245.235 198.219 243.522 197.121 242.293 197.209C241.108 197.341 240.45 199.843 240.713 202.477C240.976 205.111 243.918 205.33 243.918 205.33C243.918 205.33 251.951 209.676 253.049 210.028C254.146 210.379 256.868 210.115 257.702 209.764C258.58 209.369 259.019 207.086 259.019 205.242C259.019 203.399 258.844 202.696 257.439 201.818C256.034 200.94 248.527 197.033 248.527 197.033C248.527 197.033 246.069 196.287 245.235 198.219Z" fill="#COR"/>
<path d="M244.092 201.687C244.356 199.36 245.278 198.219 245.278 198.219C245.278 198.219 243.565 197.121 242.336 197.209C241.151 197.341 240.492 199.843 240.756 202.477C241.019 205.111 243.961 205.33 243.961 205.33C243.961 205.33 243.785 204.013 244.092 201.687Z" fill="#414E52"/>
<path d="M243.961 205.287C243.961 205.287 243.83 204.057 244.049 201.862C242.864 201.511 241.635 200.809 240.713 200.282C240.669 200.94 240.625 201.687 240.713 202.433C241.02 205.067 243.961 205.287 243.961 205.287Z" fill="#283539"/>
<path opacity="0.15" d="M257.745 209.72C258.579 209.369 259.018 207.086 259.018 205.243C259.018 204.321 258.974 203.706 258.755 203.179C257.218 203.838 254.233 205.199 253.663 205.901C253.18 206.516 252.565 208.359 252.697 209.808C252.872 209.896 253.004 209.94 253.092 209.984C254.189 210.335 256.911 210.115 257.745 209.72Z" fill="black"/>
<path opacity="0.25" d="M253.576 206.077C250.415 204.935 245.981 202.653 244.093 201.643V201.687C243.83 204.013 243.962 205.287 243.962 205.287C243.962 205.287 250.766 208.974 252.698 209.808C252.566 208.447 253.093 206.779 253.576 206.077Z" fill="black"/>
<path d="M113.315 127.891C115.028 126.267 116.74 124.643 118.452 123.018C118.364 122.096 118.188 120.033 117.881 119.506C117.486 118.804 110.33 114.063 110.33 114.063C110.33 114.063 109.496 113.229 108.091 114.546C106.687 115.863 106.599 120.384 106.818 121.57C106.994 122.492 111.384 126.267 113.315 127.891Z" fill="#COR"/>
<path opacity="0.15" d="M113.447 121.57C113.008 120.736 108.97 117.838 107.126 116.565C106.687 118.409 106.687 120.736 106.818 121.57C106.994 122.492 111.384 126.267 113.316 127.891C113.491 127.76 113.623 127.584 113.798 127.452C113.842 125.301 113.798 122.228 113.447 121.57Z" fill="black"/>
<path d="M118.188 123.282C117.485 123.018 116.344 122.711 115.817 123.106C115.203 123.589 115.115 125.301 115.115 126.223C116.124 125.257 117.134 124.247 118.188 123.282Z" fill="#414E52"/>
<path d="M323.463 177.849L336.281 170.167C336.281 170.167 336.94 169.815 336.984 170.869C337.028 171.923 336.984 177.015 336.984 177.015L333.779 178.771V175.961L323.77 181.756C323.77 181.756 322.453 182.371 322.541 180.527C322.541 178.639 323.024 178.113 323.463 177.849Z" fill="#2E383B"/>
<path d="M323.465 178.464L336.284 170.781C336.284 170.781 336.942 170.43 336.986 171.484V171.528C336.986 171.264 336.986 171.001 336.986 170.869C336.942 169.815 336.284 170.167 336.284 170.167L323.465 177.849C323.026 178.113 322.543 178.639 322.455 180.483C322.455 180.659 322.455 180.747 322.455 180.878C322.587 179.21 323.026 178.683 323.465 178.464Z" fill="#485255"/>
<path opacity="0.3" d="M333.737 175.961L323.727 181.756C323.727 181.756 323.684 181.756 323.684 181.8V184.083L333.737 178.156V175.961Z" fill="url(#paint40_linear)"/>
<g opacity="0.2">
<path opacity="0.2" d="M336.722 213.54C336.546 211.301 338.214 204.496 340.014 197.253C341.463 191.37 342.955 185.312 343.263 182.327C343.877 176.137 343.307 157.963 343.263 156.602L335.756 147.602V147.558C335.668 147.207 329.171 111.604 328.469 106.029C327.766 100.542 324.957 98.3467 324.957 98.3028L325.22 97.9516C325.352 98.0394 328.161 100.278 328.908 105.941C329.61 111.429 335.888 145.758 336.195 147.383L343.746 156.426V156.514C343.746 156.689 344.36 175.918 343.746 182.371C343.438 185.356 341.946 191.458 340.497 197.341C338.785 204.189 337.029 211.301 337.205 213.452L336.722 213.54Z" fill="black"/>
</g>
<g opacity="0.2">
<path opacity="0.2" d="M232.943 274.253C232.855 274.121 230.879 270.478 230.879 266.658C230.879 262.971 228.992 231.495 228.948 230.266L224.733 219.949V219.861C224.777 219.686 229.036 202.653 237.728 186.19C246.464 169.728 264.155 140.929 274.384 131.447L274.691 131.754C264.507 141.193 246.815 169.947 238.123 186.366C229.694 202.214 225.48 218.632 225.172 219.861L229.343 230.178C229.343 230.485 231.274 262.883 231.274 266.658C231.274 270.346 233.25 274.034 233.294 274.034L232.943 274.253Z" fill="black"/>
</g>
<path opacity="0.2" d="M35.8773 265.122C35.9212 263.717 36.887 263.146 38.1162 263.892L78.943 288.257C80.1283 288.959 81.138 290.715 81.138 292.12V299.188C81.138 300.593 80.1722 301.163 78.943 300.417L37.8967 275.965C36.7114 275.263 35.7456 273.507 35.7456 272.102L35.8773 265.122Z" fill="black"/>
<path d="M79.9078 299.978C79.7322 299.978 79.5127 299.89 79.2932 299.759L38.2469 275.307C37.2811 274.736 36.447 273.243 36.4909 272.146L36.6226 265.166C36.6226 264.858 36.7104 264.376 37.1055 264.376C37.2811 264.376 37.5006 264.463 37.7201 264.595L78.5469 288.959C79.5127 289.53 80.3468 291.023 80.3468 292.164V299.232C80.3468 299.451 80.3029 299.978 79.9078 299.978Z" fill="white"/>
<path d="M93.3411 274.472C93.6045 274.165 93.8679 273.814 94.1313 273.507C87.8975 270.302 77.186 264.814 71.3034 261.259C63.9283 256.825 46.1488 245.016 41.3638 242.03C41.4077 242.557 41.4955 243.128 41.5394 243.699C47.7731 247.694 63.2698 257.922 69.9864 262.005C76.0446 265.605 87.1512 271.268 93.3411 274.472Z" fill="#404B4D"/>
<path d="M94.7906 272.585C95.054 272.233 95.2735 271.882 95.4491 271.531C89.4787 268.458 77.6258 262.4 71.3042 258.581C63.8852 254.103 45.7985 242.074 41.2329 239.265C41.2329 239.353 41.2329 239.44 41.2329 239.528C41.2329 239.967 41.2768 240.406 41.3207 240.889C47.3789 244.752 63.2267 255.244 70.0312 259.371C76.5722 263.278 89.0398 269.643 94.7906 272.585Z" fill="#404B4D"/>
<path d="M41.5832 236.85C41.4076 237.202 41.3198 237.641 41.2759 238.211C47.2901 242.03 63.1819 252.566 70.0302 256.693C77.0542 260.951 90.9704 267.975 95.9311 270.565C96.1067 270.214 96.1945 269.863 96.2384 269.6C96.2384 269.512 96.2384 269.424 96.2384 269.336C90.6192 266.439 77.9322 259.985 71.3033 255.991C64.0599 251.601 46.6756 240.055 41.5832 236.85Z" fill="#404B4D"/>
<path d="M91.6303 276.184C91.9376 275.921 92.2449 275.614 92.5522 275.263C86.1867 272.014 76.7044 267.053 71.2608 263.805C64.0612 259.459 46.9403 248.089 41.6724 244.796C41.7602 245.367 41.848 245.981 41.9797 246.552C48.4768 250.723 63.4027 260.6 69.9877 264.551C75.563 267.887 85.3087 272.936 91.6303 276.184Z" fill="#404B4D"/>
<path d="M88.3385 277.106C89.1726 277.15 89.9188 277.019 90.4895 276.843C84.2997 273.638 76.1343 269.38 71.2614 266.439C64.3253 262.268 48.1263 251.513 42.2876 247.781C42.4632 248.484 42.6388 249.142 42.9022 249.713C49.7945 254.147 63.7107 263.366 69.9883 267.141C74.6417 269.951 82.2803 273.989 88.3385 277.106Z" fill="#404B4D"/>
<defs>
<linearGradient id="paint0_linear" x1="184.463" y1="326.829" x2="206.808" y2="273.079" gradientUnits="userSpaceOnUse">
<stop stop-color="#D0D2D4"/>
<stop offset="1" stop-color="#86898B"/>
</linearGradient>
<linearGradient id="paint1_linear" x1="183.309" y1="322.802" x2="204.198" y2="272.557" gradientUnits="userSpaceOnUse">
<stop stop-color="#B6B8BA"/>
<stop offset="1" stop-color="#6C6F71"/>
</linearGradient>
<linearGradient id="paint2_linear" x1="192.076" y1="328.313" x2="184.447" y2="313.177" gradientUnits="userSpaceOnUse">
<stop stop-color="#D0D2D4"/>
<stop offset="1" stop-color="#86898B"/>
</linearGradient>
<linearGradient id="paint3_linear" x1="180.642" y1="308.938" x2="184.58" y2="291.835" gradientUnits="userSpaceOnUse">
<stop stop-color="#F3F5F7"/>
<stop offset="1" stop-color="#86898B"/>
</linearGradient>
<linearGradient id="paint4_linear" x1="205.252" y1="320.648" x2="205.252" y2="299.469" gradientUnits="userSpaceOnUse">
<stop stop-color="#C3C5C7"/>
<stop offset="1" stop-color="#797C7E"/>
</linearGradient>
<linearGradient id="paint5_linear" x1="210.783" y1="291.171" x2="196.085" y2="307.969" gradientUnits="userSpaceOnUse">
<stop stop-color="white"/>
<stop offset="1" stop-color="#BABDBF"/>
</linearGradient>
<linearGradient id="paint6_linear" x1="189.721" y1="292.824" x2="201.379" y2="279.048" gradientUnits="userSpaceOnUse">
<stop stop-color="white"/>
<stop offset="1" stop-color="#BABDBF"/>
</linearGradient>
<linearGradient id="paint7_linear" x1="196.158" y1="298.654" x2="197.74" y2="295.254" gradientUnits="userSpaceOnUse">
<stop stop-color="white"/>
<stop offset="1" stop-color="#BABDBF"/>
</linearGradient>
<linearGradient id="paint8_linear" x1="190.234" y1="300.089" x2="191.817" y2="296.689" gradientUnits="userSpaceOnUse">
<stop stop-color="white"/>
<stop offset="1" stop-color="#BABDBF"/>
</linearGradient>
<linearGradient id="paint9_linear" x1="186.343" y1="307.224" x2="187.926" y2="303.823" gradientUnits="userSpaceOnUse">
<stop stop-color="white"/>
<stop offset="1" stop-color="#BABDBF"/>
</linearGradient>
<linearGradient id="paint10_linear" x1="190.233" y1="311.11" x2="191.816" y2="307.71" gradientUnits="userSpaceOnUse">
<stop stop-color="white"/>
<stop offset="1" stop-color="#BABDBF"/>
</linearGradient>
<linearGradient id="paint11_linear" x1="195.927" y1="305.697" x2="197.51" y2="302.296" gradientUnits="userSpaceOnUse">
<stop stop-color="white"/>
<stop offset="1" stop-color="#BABDBF"/>
</linearGradient>
<linearGradient id="paint12_linear" x1="192.99" y1="298.049" x2="192.851" y2="305.249" gradientUnits="userSpaceOnUse">
<stop stop-color="#EAECEE"/>
<stop offset="1" stop-color="#A0A3A5"/>
</linearGradient>
<linearGradient id="paint13_linear" x1="408.842" y1="197.007" x2="431.188" y2="143.256" gradientUnits="userSpaceOnUse">
<stop stop-color="#D0D2D4"/>
<stop offset="1" stop-color="#86898B"/>
</linearGradient>
<linearGradient id="paint14_linear" x1="407.692" y1="192.978" x2="428.579" y2="142.736" gradientUnits="userSpaceOnUse">
<stop stop-color="#B6B8BA"/>
<stop offset="1" stop-color="#6C6F71"/>
</linearGradient>
<linearGradient id="paint15_linear" x1="416.458" y1="198.489" x2="408.828" y2="183.353" gradientUnits="userSpaceOnUse">
<stop stop-color="#D0D2D4"/>
<stop offset="1" stop-color="#86898B"/>
</linearGradient>
<linearGradient id="paint16_linear" x1="405.025" y1="179.114" x2="408.963" y2="162.011" gradientUnits="userSpaceOnUse">
<stop stop-color="#F3F5F7"/>
<stop offset="1" stop-color="#86898B"/>
</linearGradient>
<linearGradient id="paint17_linear" x1="429.634" y1="190.823" x2="429.634" y2="169.646" gradientUnits="userSpaceOnUse">
<stop stop-color="#C3C5C7"/>
<stop offset="1" stop-color="#797C7E"/>
</linearGradient>
<linearGradient id="paint18_linear" x1="435.162" y1="161.345" x2="420.463" y2="178.145" gradientUnits="userSpaceOnUse">
<stop stop-color="white"/>
<stop offset="1" stop-color="#BABDBF"/>
</linearGradient>
<linearGradient id="paint19_linear" x1="414.101" y1="163.002" x2="425.759" y2="149.225" gradientUnits="userSpaceOnUse">
<stop stop-color="white"/>
<stop offset="1" stop-color="#BABDBF"/>
</linearGradient>
<linearGradient id="paint20_linear" x1="420.537" y1="168.832" x2="422.12" y2="165.43" gradientUnits="userSpaceOnUse">
<stop stop-color="white"/>
<stop offset="1" stop-color="#BABDBF"/>
</linearGradient>
<linearGradient id="paint21_linear" x1="414.612" y1="170.265" x2="416.194" y2="166.865" gradientUnits="userSpaceOnUse">
<stop stop-color="white"/>
<stop offset="1" stop-color="#BABDBF"/>
</linearGradient>
<linearGradient id="paint22_linear" x1="410.725" y1="177.399" x2="412.308" y2="173.998" gradientUnits="userSpaceOnUse">
<stop stop-color="white"/>
<stop offset="1" stop-color="#BABDBF"/>
</linearGradient>
<linearGradient id="paint23_linear" x1="414.612" y1="181.287" x2="416.195" y2="177.885" gradientUnits="userSpaceOnUse">
<stop stop-color="white"/>
<stop offset="1" stop-color="#BABDBF"/>
</linearGradient>
<linearGradient id="paint24_linear" x1="420.307" y1="175.874" x2="421.89" y2="172.473" gradientUnits="userSpaceOnUse">
<stop stop-color="white"/>
<stop offset="1" stop-color="#BABDBF"/>
</linearGradient>
<linearGradient id="paint25_linear" x1="417.367" y1="168.226" x2="417.227" y2="175.425" gradientUnits="userSpaceOnUse">
<stop stop-color="#EAECEE"/>
<stop offset="1" stop-color="#A0A3A5"/>
</linearGradient>
<linearGradient id="paint26_linear" x1="176.64" y1="225.725" x2="88.2052" y2="278.191" gradientUnits="userSpaceOnUse">
<stop stop-color="white"/>
<stop offset="1"/>
</linearGradient>
<linearGradient id="paint27_linear" x1="376.64" y1="162.654" x2="450.339" y2="162.654" gradientUnits="userSpaceOnUse">
<stop/>
<stop offset="0.4149" stop-color="white"/>
<stop offset="0.7934" stop-color="white"/>
<stop offset="1"/>
</linearGradient>
<linearGradient id="paint28_linear" x1="145.6" y1="299.317" x2="232.349" y2="281.011" gradientUnits="userSpaceOnUse">
<stop/>
<stop offset="0.4149" stop-color="white"/>
<stop offset="0.7934" stop-color="white"/>
<stop offset="1"/>
</linearGradient>
<linearGradient id="paint29_linear" x1="68.5456" y1="256.053" x2="60.0194" y2="269.074" gradientUnits="userSpaceOnUse">
<stop offset="0.1666" stop-color="white"/>
<stop offset="1"/>
</linearGradient>
<linearGradient id="paint30_linear" x1="97.9914" y1="279.846" x2="156.261" y2="279.846" gradientUnits="userSpaceOnUse">
<stop stop-color="#FAFFFF"/>
<stop offset="1" stop-color="#D4D7D9"/>
</linearGradient>
<linearGradient id="paint31_linear" x1="111.272" y1="278.247" x2="152.544" y2="278.247" gradientUnits="userSpaceOnUse">
<stop stop-color="#FAFFFF"/>
<stop offset="1" stop-color="#D4D7D9"/>
</linearGradient>
<linearGradient id="paint32_linear" x1="124.416" y1="278.572" x2="156.062" y2="278.572" gradientUnits="userSpaceOnUse">
<stop stop-color="#FAFFFF"/>
<stop offset="1" stop-color="#D4D7D9"/>
</linearGradient>
<linearGradient id="paint33_linear" x1="142.699" y1="279.765" x2="156.256" y2="279.765" gradientUnits="userSpaceOnUse">
<stop stop-color="#FAFFFF"/>
<stop offset="1" stop-color="#D4D7D9"/>
</linearGradient>
<linearGradient id="paint34_linear" x1="121.544" y1="269.064" x2="134.264" y2="293.795" gradientUnits="userSpaceOnUse">
<stop stop-color="white"/>
<stop offset="1" stop-color="white"/>
</linearGradient>
<linearGradient id="paint35_linear" x1="19.585" y1="221.977" x2="34.9903" y2="221.977" gradientUnits="userSpaceOnUse">
<stop stop-color="#FAFFFF"/>
<stop offset="1" stop-color="#D4D7D9"/>
</linearGradient>
<linearGradient id="paint36_linear" x1="24.099" y1="215.628" x2="34.991" y2="215.628" gradientUnits="userSpaceOnUse">
<stop stop-color="#FAFFFF"/>
<stop offset="1" stop-color="#D4D7D9"/>
</linearGradient>
<linearGradient id="paint37_linear" x1="26.1283" y1="226.585" x2="34.9908" y2="226.585" gradientUnits="userSpaceOnUse">
<stop stop-color="#FAFFFF"/>
<stop offset="1" stop-color="#D4D7D9"/>
</linearGradient>
<linearGradient id="paint38_linear" x1="19.585" y1="221.977" x2="34.9903" y2="221.977" gradientUnits="userSpaceOnUse">
<stop stop-color="white"/>
<stop offset="0.0856" stop-color="#F5F5F5"/>
<stop offset="0.2332" stop-color="#D9D9D9"/>
<stop offset="0.4252" stop-color="#ABABAB"/>
<stop offset="0.6542" stop-color="#6C6C6C"/>
<stop offset="0.9116" stop-color="#1D1D1D"/>
<stop offset="1"/>
</linearGradient>
<linearGradient id="paint39_linear" x1="19.585" y1="221.977" x2="34.9903" y2="221.977" gradientUnits="userSpaceOnUse">
<stop stop-color="white"/>
<stop offset="1" stop-color="white"/>
</linearGradient>
<linearGradient id="paint40_linear" x1="329.231" y1="180.82" x2="328.044" y2="179.029" gradientUnits="userSpaceOnUse">
<stop stop-color="white"/>
<stop offset="1"/>
</linearGradient>
</defs>
</svg>
