<?xml version="1.0" encoding="UTF-8" standalone="no"?>
<!-- Created with Inkscape (http://www.inkscape.org/) -->

<svg
   version="1.1"
   id="svg2"
   xml:space="preserve"
   width="2666.6667"
   height="2666.6667"
   viewBox="0 0 2666.6667 2666.6667"
   sodipodi:docname="fence.svg"
   inkscape:version="1.1.2 (0a00cf5339, 2022-02-04)"
   xmlns:inkscape="http://www.inkscape.org/namespaces/inkscape"
   xmlns:sodipodi="http://sodipodi.sourceforge.net/DTD/sodipodi-0.dtd"
   xmlns="http://www.w3.org/2000/svg"
   xmlns:svg="http://www.w3.org/2000/svg"><defs
     id="defs6" /><sodipodi:namedview
     id="namedview4"
     pagecolor="#505050"
     bordercolor="#eeeeee"
     borderopacity="1"
     inkscape:pageshadow="0"
     inkscape:pageopacity="0"
     inkscape:pagecheckerboard="0"
     showgrid="false"
     inkscape:zoom="0.17624999"
     inkscape:cx="1432.6242"
     inkscape:cy="1336.1703"
     inkscape:window-width="1366"
     inkscape:window-height="654"
     inkscape:window-x="0"
     inkscape:window-y="0"
     inkscape:window-maximized="1"
     inkscape:current-layer="g8" /><g
     id="g8"
     inkscape:groupmode="layer"
     inkscape:label="ink_ext_XXXXXX"
     transform="matrix(1.3333333,0,0,-1.3333333,0,2666.6667)"><path
       d="m 1602.83,1001.12 v 594.04 l -87.12,-49.11 v -597.2 l 87.12,52.27"
       style="fill:#556040;fill-opacity:1;fill-rule:nonzero;stroke:none;stroke-width:0.1"
       id="path14" /><path
       d="m 1515.71,1546.05 -87.13,49.11 87.13,50.69 87.12,-50.69 -87.12,-49.11"
       style="fill:#3d442e;fill-opacity:1;fill-rule:nonzero;stroke:none;stroke-width:0.1"
       id="path16" /><path
       d="M 1428.58,1595.16 V 998.48 l 87.13,-49.63 v 597.2 l -87.13,49.11"
       style="fill:#474f34;fill-opacity:1;fill-rule:nonzero;stroke:none;stroke-width:0.1"
       id="path18" /><path
       d="m 1490.89,1490.61 v -98.22 L 462.816,798.36 v 101.38 l 1028.074,590.87"
       style="fill:#7b895c;fill-opacity:1;fill-rule:nonzero;stroke:none;stroke-width:0.1"
       id="path20" /><path
       d="m 1490.89,1490.61 -44.35,26.93 -1028.078,-590.87 44.354,-26.93 1028.074,590.87"
       style="fill:#6c774f;fill-opacity:1;fill-rule:nonzero;stroke:none;stroke-width:0.1"
       id="path22" /><path
       d="M 418.462,926.67 V 825.82 l 44.354,-27.46 v 101.38 l -44.354,26.93"
       style="fill:#586040;fill-opacity:1;fill-rule:nonzero;stroke:none;stroke-width:0.1"
       id="path24" /><path
       d="m 1490.89,1232.4 v -98.21 L 462.816,540.15 V 641.53 L 1490.89,1232.4"
       style="fill:#7b895c;fill-opacity:1;fill-rule:nonzero;stroke:none;stroke-width:0.1"
       id="path26" /><path
       d="m 1490.89,1232.4 -44.35,26.93 L 418.462,668.46 462.816,641.53 1490.89,1232.4"
       style="fill:#6c774f;fill-opacity:1;fill-rule:nonzero;stroke:none;stroke-width:0.1"
       id="path28" /><path
       d="M 418.462,668.46 V 567.61 l 44.354,-27.46 v 101.38 l -44.354,26.93"
       style="fill:#586040;fill-opacity:1;fill-rule:nonzero;stroke:none;stroke-width:0.1"
       id="path30" /><path
       d="M 1417.5,1587.24 V 891.82 l -45.94,-26.93 v 694.89 l 45.94,27.46"
       style="fill:#8c8c8c;fill-opacity:1;fill-rule:nonzero;stroke:none;stroke-width:0.1"
       id="path32" /><path
       d="m 1417.5,1587.24 -37.5,22.17 -46.46,-26.93 38.02,-22.7 45.94,27.46"
       style="fill:#e8e8e8;fill-opacity:1;fill-rule:nonzero;stroke:none;stroke-width:0.1"
       id="path34" /><path
       d="M 1333.54,1582.48 V 888.65 l 38.02,-23.76 v 694.89 l -38.02,22.7"
       style="fill:#c9c9c9;fill-opacity:1;fill-rule:nonzero;stroke:none;stroke-width:0.1"
       id="path36" /><path
       d="M 1317.7,1530.74 V 835.32 l -45.94,-26.93 v 694.89 l 45.94,27.46"
       style="fill:#8c8c8c;fill-opacity:1;fill-rule:nonzero;stroke:none;stroke-width:0.1"
       id="path38" /><path
       d="m 1317.7,1530.74 -37.49,22.17 -46.47,-26.92 38.02,-22.71 45.94,27.46"
       style="fill:#e8e8e8;fill-opacity:1;fill-rule:nonzero;stroke:none;stroke-width:0.1"
       id="path40" /><path
       d="M 1233.74,1525.99 V 832.15 l 38.02,-23.76 v 694.89 l -38.02,22.71"
       style="fill:#c9c9c9;fill-opacity:1;fill-rule:nonzero;stroke:none;stroke-width:0.1"
       id="path42" /><path
       d="M 1217.11,1472.39 V 776.97 l -45.94,-26.93 v 694.89 l 45.94,27.46"
       style="fill:#8c8c8c;fill-opacity:1;fill-rule:nonzero;stroke:none;stroke-width:0.1"
       id="path44" /><path
       d="m 1217.11,1472.39 -37.49,22.18 -46.47,-26.93 38.02,-22.71 45.94,27.46"
       style="fill:#e8e8e8;fill-opacity:1;fill-rule:nonzero;stroke:none;stroke-width:0.1"
       id="path46" /><path
       d="M 1133.15,1467.64 V 773.81 l 38.02,-23.77 v 694.89 l -38.02,22.71"
       style="fill:#c9c9c9;fill-opacity:1;fill-rule:nonzero;stroke:none;stroke-width:0.1"
       id="path48" /><path
       d="M 1117.31,1415.89 V 720.47 l -45.94,-26.93 v 694.89 l 45.94,27.46"
       style="fill:#8c8c8c;fill-opacity:1;fill-rule:nonzero;stroke:none;stroke-width:0.1"
       id="path50" /><path
       d="m 1117.31,1415.89 -37.49,22.18 -46.47,-26.93 38.02,-22.71 45.94,27.46"
       style="fill:#e8e8e8;fill-opacity:1;fill-rule:nonzero;stroke:none;stroke-width:0.1"
       id="path52" /><path
       d="M 1033.35,1411.14 V 717.31 l 38.02,-23.77 v 694.89 l -38.02,22.71"
       style="fill:#c9c9c9;fill-opacity:1;fill-rule:nonzero;stroke:none;stroke-width:0.1"
       id="path54" /><path
       d="M 1013.16,1355.7 V 660.28 l -45.942,-26.93 v 694.89 l 45.942,27.46"
       style="fill:#8c8c8c;fill-opacity:1;fill-rule:nonzero;stroke:none;stroke-width:0.1"
       id="path56" /><path
       d="m 1013.16,1355.7 -37.494,22.17 -46.467,-26.93 38.019,-22.7 45.942,27.46"
       style="fill:#e8e8e8;fill-opacity:1;fill-rule:nonzero;stroke:none;stroke-width:0.1"
       id="path58" /><path
       d="M 929.199,1350.94 V 657.11 l 38.019,-23.76 v 694.89 l -38.019,22.7"
       style="fill:#c9c9c9;fill-opacity:1;fill-rule:nonzero;stroke:none;stroke-width:0.1"
       id="path60" /><path
       d="M 913.358,1299.2 V 603.78 L 867.42,576.85 v 694.89 l 45.938,27.46"
       style="fill:#8c8c8c;fill-opacity:1;fill-rule:nonzero;stroke:none;stroke-width:0.1"
       id="path62" /><path
       d="m 913.358,1299.2 -37.49,22.17 -46.467,-26.93 38.019,-22.7 45.938,27.46"
       style="fill:#e8e8e8;fill-opacity:1;fill-rule:nonzero;stroke:none;stroke-width:0.1"
       id="path64" /><path
       d="M 829.401,1294.44 V 600.61 l 38.019,-23.76 v 694.89 l -38.019,22.7"
       style="fill:#c9c9c9;fill-opacity:1;fill-rule:nonzero;stroke:none;stroke-width:0.1"
       id="path66" /><path
       d="M 812.769,1240.85 V 545.43 L 766.83,518.5 v 694.89 l 45.939,27.46"
       style="fill:#8c8c8c;fill-opacity:1;fill-rule:nonzero;stroke:none;stroke-width:0.1"
       id="path68" /><path
       d="m 812.769,1240.85 -37.491,22.18 -46.466,-26.93 38.018,-22.71 45.939,27.46"
       style="fill:#e8e8e8;fill-opacity:1;fill-rule:nonzero;stroke:none;stroke-width:0.1"
       id="path70" /><path
       d="M 728.812,1236.1 V 542.26 L 766.83,518.5 v 694.89 l -38.018,22.71"
       style="fill:#c9c9c9;fill-opacity:1;fill-rule:nonzero;stroke:none;stroke-width:0.1"
       id="path72" /><path
       d="M 712.97,1184.35 V 488.93 L 667.032,462 v 694.89 l 45.938,27.46"
       style="fill:#8c8c8c;fill-opacity:1;fill-rule:nonzero;stroke:none;stroke-width:0.1"
       id="path74" /><path
       d="m 712.97,1184.35 -37.49,22.18 -46.466,-26.93 38.018,-22.71 45.938,27.46"
       style="fill:#e8e8e8;fill-opacity:1;fill-rule:nonzero;stroke:none;stroke-width:0.1"
       id="path76" /><path
       d="M 629.014,1179.6 V 485.76 L 667.032,462 v 694.89 l -38.018,22.71"
       style="fill:#c9c9c9;fill-opacity:1;fill-rule:nonzero;stroke:none;stroke-width:0.1"
       id="path78" /><path
       d="m 571.416,406.43 v 594.03 L 484.29,951.36 V 354.15 l 87.126,52.28"
       style="fill:#556040;fill-opacity:1;fill-rule:nonzero;stroke:none;stroke-width:0.1"
       id="path80" /><path
       d="m 484.29,951.36 -87.124,49.1 87.124,50.69 87.126,-50.69 -87.126,-49.1"
       style="fill:#3d442e;fill-opacity:1;fill-rule:nonzero;stroke:none;stroke-width:0.1"
       id="path82" /><path
       d="M 397.166,1000.46 V 403.79 l 87.124,-49.64 v 597.21 l -87.124,49.1"
       style="fill:#474f34;fill-opacity:1;fill-rule:nonzero;stroke:none;stroke-width:0.1"
       id="path84" /></g></svg>
