<?xml version="1.0" encoding="UTF-8"?>
<!-- Created with Inkscape (http://www.inkscape.org/) -->
<svg width="2666.7" height="2666.7" version="1.1" viewBox="0 0 2666.7 2666.7" xml:space="preserve" xmlns="http://www.w3.org/2000/svg"><g transform="matrix(1.3333 0 0 -1.3333 0 2666.7)"><path d="m1787.4 1232.3v116.05l-1527.9-877.18v-120.94l1527.9 882.07" fill="#7c502c"/><path d="m259.47 471.15-46.828 28.13v-116.05l46.828-33.02v120.94" fill="#6b4426"/><path d="m1787.4 1348.3-46.03 25.35-1528.7-874.4 46.828-28.13 1527.9 877.18" fill="#5b3821"/><path d="m1787.4 1458.2v116.05l-1527.9-877.18v-120.94l1527.9 882.07" fill="#7c502c"/><path d="m259.47 697.09-46.828 28.12v-116.05l46.828-33.01v120.94" fill="#6b4426"/><path d="m1787.4 1574.3-46.03 25.34-1528.7-874.4 46.828-28.12 1527.9 877.18" fill="#5b3821"/><path d="m1754.9 1077.4v590.94l-101.38 61.36-106.71-182.75v-586.93l208.09 117.38" fill="#b77a3d"/><path d="m1546.8 1546.9-30.68 20.01 108.05 178.74 29.34-16-106.71-182.75" fill="#a06733"/><path d="m1516.1 1566.9v-586.94l30.68-20v586.93l-30.68 20.01" fill="#8e592e"/><path d="m1452.1 903.95v590.93l-101.38 61.36-106.72-182.74v-586.94l208.1 117.39" fill="#b77a3d"/><path d="m1244 1373.5-30.68 20.01 108.05 178.74 29.35-16.01-106.72-182.74" fill="#a06733"/><path d="m1213.3 1393.5v-586.94l30.68-20.01v586.94l-30.68 20.01" fill="#8e592e"/><path d="m1140.8 725.2v590.94l-101.38 61.36-106.72-182.75v-586.93l208.1 117.38" fill="#b77a3d"/><path d="m932.68 1194.8-30.68 20.01 108.04 178.75 29.35-16.01-106.72-182.75" fill="#a06733"/><path d="m902 1214.8v-586.93l30.68-20.01v586.93l-30.68 20.01" fill="#8e592e"/><path d="m834.31 547.79v590.93l-101.38 61.36-106.72-182.74v-586.94l208.1 117.39" fill="#b77a3d"/><path d="m626.21 1017.3-30.68 20 108.05 178.75 29.346-16.01-106.72-182.74" fill="#a06733"/><path d="m595.53 1037.3v-586.93l30.68-20.01v586.94l-30.68 20" fill="#8e592e"/><path d="m529.19 371.72v590.94l-101.38 61.36-106.72-182.75v-586.93l208.09 117.38" fill="#b77a3d"/><path d="m321.1 841.27-30.681 20.01 108.05 178.75 29.347-16.01-106.72-182.75" fill="#a06733"/><path d="m290.42 861.28v-586.94l30.681-20v586.93l-30.681 20.01" fill="#8e592e"/></g></svg>
